<svg aria-hidden="true" style="position: absolute; width: 0; height: 0; overflow: hidden;" version="1.1" xmlns="http://www.w3.org/2000/svg" xmlns:xlink="http://www.w3.org/1999/xlink">
<defs>
<symbol id="icon-portfolio" viewBox="0 0 20 20">
<path d="M9 12h-8v6c0 1.105 0.895 2 2 2v0h14c1.105 0 2-0.895 2-2v0-6h-8v2h-2v-2zM9 11h-9v-6c0-1.1 0.9-2 2-2h4v-1c0-1.105 0.895-2 2-2v0h4c1.105 0 2 0.895 2 2v0 1h4c1.105 0 2 0.895 2 2v0 6h-9v-2h-2v2zM12 3v-1h-4v1h4z"></path>
</symbol>
<symbol id="icon-home" viewBox="0 0 20 20">
<path d="M18.672 11h-1.672v6c0 0.445-0.194 1-1 1h-4v-6h-4v6h-4c-0.806 0-1-0.555-1-1v-6h-1.672c-0.598 0-0.47-0.324-0.060-0.748l8.024-8.032c0.195-0.202 0.451-0.302 0.708-0.312 0.257 0.010 0.513 0.109 0.708 0.312l8.023 8.031c0.411 0.425 0.539 0.749-0.059 0.749z"></path>
</symbol>
<symbol id="icon-user-o" viewBox="0 0 24 28">
<path d="M18.766 12.25c2.203 0.641 5.234 2.812 5.234 9.922 0 3.219-2.391 5.828-5.328 5.828h-13.344c-2.938 0-5.328-2.609-5.328-5.828 0-7.109 3.031-9.281 5.234-9.922-0.781-1.234-1.234-2.688-1.234-4.25 0-4.406 3.594-8 8-8s8 3.594 8 8c0 1.563-0.453 3.016-1.234 4.25zM12 2c-3.313 0-6 2.688-6 6s2.688 6 6 6 6-2.688 6-6-2.688-6-6-6zM18.672 26c1.828 0 3.328-1.703 3.328-3.828 0-4.922-1.656-8-4.75-8.156-1.406 1.234-3.234 1.984-5.25 1.984s-3.844-0.75-5.25-1.984c-3.094 0.156-4.75 3.234-4.75 8.156 0 2.125 1.5 3.828 3.328 3.828h13.344z"></path>
</symbol>
<symbol id="icon-gallery" viewBox="0 0 16 16">
<path d="M15 0h-8c-0.553 0-1 0.447-1 1v8c0 0.553 0.447 1 1 1h8c0.553 0 1-0.447 1-1v-8c0-0.553-0.447-1-1-1zM14 8h-6v-6h6v6zM8 14h-6v-6h2v-2h-3c-0.553 0-1 0.447-1 1v8c0 0.553 0.447 1 1 1h8c0.553 0 1-0.447 1-1v-3h-2v2z"></path>
</symbol>
<symbol id="icon-user" viewBox="0 0 16 16">
<path d="M9 11.041v-0.825c1.102-0.621 2-2.168 2-3.716 0-2.485 0-4.5-3-4.5s-3 2.015-3 4.5c0 1.548 0.898 3.095 2 3.716v0.825c-3.392 0.277-6 1.944-6 3.959h14c0-2.015-2.608-3.682-6-3.959z"></path>
</symbol>
<symbol id="icon-contacts" viewBox="0 0 24 24">
<path d="M19 3h-11c-1.654 0-3 1.346-3 3v1h-1c-0.553 0-1 0.448-1 1s0.447 1 1 1h1v2h-1c-0.553 0-1 0.448-1 1s0.447 1 1 1h1v2h-1c-0.553 0-1 0.448-1 1s0.447 1 1 1h1v1c0 1.654 1.346 3 3 3h11c1.654 0 3-1.346 3-3v-12c0-1.654-1.346-3-3-3zM7 6c0-0.551 0.449-1 1-1v2h-1v-1zM7 9h1v2h-1v-2zM7 13h1v2h-1v-2zM7 18v-1h1v2c-0.551 0-1-0.449-1-1zM20 18c0 0.551-0.449 1-1 1h-10v-14h10c0.551 0 1 0.449 1 1v12z"></path>
<path d="M16 10.5c0 1.105-0.895 2-2 2s-2-0.895-2-2c0-1.105 0.895-2 2-2s2 0.895 2 2z"></path>
<path d="M14 13.356c-1.562 0-2.5 0.715-2.5 1.429 0 0.357 0.938 0.715 2.5 0.715 1.466 0 2.5-0.357 2.5-0.715 0-0.714-0.98-1.429-2.5-1.429z"></path>
</symbol>
<symbol id="icon-study" viewBox="0 0 32 32">
<path d="M32 8c0-1.406-0.957-2.608-2.326-2.924l-13.013-3.003c-0.218-0.049-0.44-0.073-0.661-0.073s-0.443 0.024-0.675 0.076l-12.999 3c-1.37 0.316-2.326 1.518-2.326 2.924s0.957 2.608 2.325 2.924l2.675 0.617v8.459c0 2.654 3.038 5 11 5s11-2.346 11-5v-8.459l2.674-0.617c1.369-0.316 2.326-1.518 2.326-2.924zM25 20c0 1.105-3 3-9 3s-9-1.895-9-3v-7.997l8.338 1.924c0.218 0.049 0.441 0.073 0.662 0.073s0.444-0.024 0.674-0.076l8.326-1.921v7.997zM16.225 11.975c-0.075 0.016-0.15 0.025-0.225 0.025s-0.151-0.009-0.225-0.025l-13-3c-0.454-0.105-0.775-0.509-0.775-0.975s0.321-0.87 0.775-0.975l13-3c0.074-0.016 0.149-0.025 0.225-0.025s0.151 0.009 0.225 0.025l13 3c0.453 0.105 0.775 0.509 0.775 0.975s-0.322 0.87-0.775 0.975l-13 3zM29 13c0-0.553 0.447-1 1-1 0.552 0 1 0.447 1 1v9c0 0.553-0.448 1-1 1-0.553 0-1-0.447-1-1v-9zM30 24c1.104 0 2 2.896 2 4s-0.896 2-2 2c-1.105 0-2-0.896-2-2s0.895-4 2-4z"></path>
</symbol>
<symbol id="icon-document-code" viewBox="0 0 32 32">
<path d="M19.5 3h0.5l6 7v18.009c0 1.093-0.894 1.991-1.997 1.991h-15.005c-1.107 0-1.997-0.899-1.997-2.007v-22.985c0-1.109 0.897-2.007 2.003-2.007h10.497zM19 4h-10.004c-0.55 0-0.996 0.455-0.996 0.995v23.009c0 0.55 0.455 0.995 1 0.995h15c0.552 0 1-0.445 1-0.993v-17.007h-4.002c-1.103 0-1.998-0.887-1.998-2.006v-4.994zM20 4.5v4.491c0 0.557 0.451 1.009 0.997 1.009h3.703l-4.7-5.5zM17 18l-2 8h1l2-8h-1zM13 25l-3-3 3-3 0.7 0.7-2.3 2.3 2.3 2.3-0.7 0.7zM20 25l3-3-3-3-0.7 0.7 2.3 2.3-2.3 2.3 0.7 0.7z"></path>
</symbol>
</defs>
</svg>
